# xmcd
#
# Track frame offsets:
#	150
#	22361
#	39137
#	57289
#	67338
#	79080
#	90207
#	114033
#	125910
#	143553
#	154525
#	165617
#	177202
#	195963
#	210850
#
# Disc length: 3030 seconds
#
# Revision: 9
# Processed by: cddbd v1.5.2PL0 Copyright (c) Steve Scherf et al.
# Submitted via: EZCDAudioConverter 2.1.7.1
#
DISCID=b90bd40f
DTITLE=V/A - Heavy Soul
DYEAR=2010
DGENRE=MOJO
TTITLE0=Betty Davis - If I'm In Luck I Might Get Picked Up
TTITLE1=Funkadelic - Super Stupid
TTITLE2=JC Brooks and The Uptown Sound - Baltimore Is The New Brooklyn
TTITLE3=Marion Black - Come On And Gettit
TTITLE4=Freddy Scott and The Four Steps - Same Ole Beat
TTITLE5=Soul President - Got To Have It
TTITLE6=Curtis Mayfield - Freddie's Dead
TTITLE7=Sidney Pinchback - Soul Strokes
TTITLE8=Black Merda - Take A Little Time
TTITLE9=Chuck Garbo and The Soul Finders - Can I Be Your Main Squeeze
TTITLE10=Bobby Franklin's Insanity - Bring It On Down To Me (Part 1)
TTITLE11=Eugene Blacknell - Gettin' Down
TTITLE12=Aaron Neville - Hercules
TTITLE13=Moses Dillard and Tex-Town Display - I've Got To Find A Way (To Hide My
TTITLE13=Hurt) (Part 1)
TTITLE14=Darondo - How I Got Over
EXTD=
EXTT0=
EXTT1=
EXTT2=
EXTT3=
EXTT4=
EXTT5=
EXTT6=
EXTT7=
EXTT8=
EXTT9=
EXTT10=
EXTT11=
EXTT12=
EXTT13=
EXTT14=
PLAYORDER=
